<svg width="20" height="20" viewBox="0 0 20 20" fill="none" xmlns="http://www.w3.org/2000/svg">
    <path fill-rule="evenodd" clip-rule="evenodd" d="M18.233 1.76702C15.8697 -0.589008 12.0457 -0.589008 9.68237 1.76702C9.42781 2.02405 9.28399 2.37052 9.2817 2.73227V2.73227C9.27652 3.47154 9.87162 4.07504 10.6109 4.08022C10.6231 4.0803 10.6354 4.08022 10.6476 4.07997C10.9886 4.07231 11.314 3.93564 11.5582 3.69752L11.5582 3.69752C12.8755 2.44866 14.9397 2.44866 16.257 3.69752C17.5538 4.99531 17.5538 7.09845 16.257 8.39625L8.31646 16.3367C6.99916 17.5856 4.93503 17.5856 3.61773 16.3367H3.61773C2.32088 15.0389 2.32088 12.9358 3.61773 11.638L7.00519 8.25966C7.3874 7.87744 8.00709 7.87744 8.38931 8.25966C8.77153 8.64187 8.77153 9.26156 8.38931 9.64378L6.01263 12.0569C5.75807 12.3139 5.61425 12.6604 5.61196 13.0221L5.61196 13.0221C5.61227 13.3842 5.75637 13.7314 6.01259 13.9873C6.5622 14.4789 7.39347 14.4789 7.94308 13.9873L10.3562 11.5651V11.5651C11.6392 9.97031 11.3865 7.63735 9.79166 6.3543C8.42569 5.25537 6.47656 5.26388 5.12023 6.3747L1.73277 9.71663H1.73277C-0.60723 12.099 -0.572872 15.9272 1.8095 18.2672C4.1617 20.5776 7.93117 20.5776 10.2834 18.2672L18.233 10.3176V10.3176C20.589 7.95431 20.589 4.13035 18.233 1.76703V1.76702Z" fill="#004BA8"/>
</svg>
