<svg width="24" height="24" viewBox="0 0 24 24" fill="none" xmlns="http://www.w3.org/2000/svg">
<circle cx="12" cy="12" r="10" fill="white"/>
<path fill-rule="evenodd" clip-rule="evenodd" d="M22 12C22 17.5227 17.5227 22 12 22C6.47726 22 2 17.5227 2 12C2 6.47726 6.47726 2 12 2C17.5227 2 22 6.47726 22 12ZM20.3333 12C20.3333 7.39774 16.6023 3.66667 12 3.66667C7.39774 3.66667 3.66667 7.39774 3.66667 12C3.66667 16.6023 7.39774 20.3333 12 20.3333C16.6023 20.3333 20.3333 16.6023 20.3333 12ZM11.2917 15.8001L16.8 9.37506C17.0992 9.02528 17.0582 8.49921 16.7084 8.20006C16.3586 7.9009 15.8325 7.94194 15.5334 8.29172L11.0417 13.5334L8.33338 11.5001C7.96519 11.2239 7.44286 11.2985 7.16672 11.6667C6.89057 12.0349 6.96519 12.5573 7.33338 12.8334L11.2917 15.8001Z" fill="#44A45F"/>
</svg>
