<svg width="20" height="20" viewBox="0 0 20 20" fill="none" xmlns="http://www.w3.org/2000/svg">
<path fill-rule="evenodd" clip-rule="evenodd" d="M17.0714 17.0716C20.9762 13.1659 20.9762 6.83409 17.0714 2.92845C13.1659 -0.976149 6.83409 -0.976149 2.92857 2.92845C-0.976168 6.83409 -0.976168 13.1659 2.92844 17.0714C6.83409 20.9762 13.1659 20.9762 17.0714 17.0716ZM4.10697 15.8929C0.853214 12.6384 0.853214 7.36163 4.10711 4.10698C7.36161 0.853253 12.6383 0.85323 15.893 4.10705C19.1468 7.36171 19.1468 12.6384 15.8929 15.893C12.6384 19.1468 7.36163 19.1468 4.10697 15.8929ZM10.8335 15.0081C10.8335 15.4684 10.4604 15.8415 10.0002 15.8415C9.53993 15.8415 9.16682 15.4684 9.16682 15.0081V14.9998C9.16682 14.5395 9.53993 14.1664 10.0002 14.1664C10.4604 14.1664 10.8335 14.5395 10.8335 14.9998V15.0081ZM9.2548 12.0392C9.46063 12.4509 9.9612 12.6177 10.3729 12.4119L12.3246 11.4361C13.4536 10.8716 14.1669 9.71716 14.1669 8.45481V8.33314C14.1669 6.49203 12.6746 4.99973 10.8335 4.99973H10.0002C8.15906 4.99973 6.66676 6.49203 6.66676 8.33314C6.66676 8.79339 7.03987 9.16649 7.50012 9.16649C7.96036 9.16649 8.33347 8.79339 8.33347 8.33314C8.33347 7.41252 9.07956 6.66644 10.0002 6.66644H10.8335C11.7541 6.66644 12.5002 7.41252 12.5002 8.33314V8.45481C12.5002 9.0859 12.1435 9.66316 11.5792 9.94532L9.62749 10.9212C9.21583 11.127 9.04897 11.6276 9.2548 12.0392Z" fill="#004BA8"/>
</svg>
