<svg width="24" height="24" viewBox="0 0 24 24" fill="none" xmlns="http://www.w3.org/2000/svg">
<path d="M20.5201 2.39999H8.32009C7.52009 2.39999 6.84009 3.07999 6.84009 3.87999V9.19999H9.16009C9.16009 9.15999 9.16009 9.11999 9.16009 9.11999C9.16009 8.87999 9.32009 8.71999 9.56009 8.71999H19.3201C19.5601 8.71999 19.7201 8.87999 19.7201 9.11999C19.7201 9.35999 19.5601 9.51999 19.3201 9.51999H14.0401C14.4801 9.79999 14.8401 10.24 14.9601 10.8H17.8401C18.0801 10.8 18.2401 10.96 18.2401 11.2C18.2401 11.44 18.0801 11.6 17.8401 11.6H15.0001V14.16L18.7601 16.68C18.8401 16.72 18.9201 16.76 19.0001 16.76C19.0801 16.76 19.1201 16.76 19.2001 16.72C19.3201 16.64 19.4001 16.52 19.4001 16.36V13.8H20.5201C21.3201 13.8 22.0001 13.12 22.0001 12.32V3.91999C22.0001 3.07999 21.3201 2.39999 20.5201 2.39999ZM10.9601 4.59999H17.8801C18.1201 4.59999 18.2801 4.75999 18.2801 4.99999C18.2801 5.23999 18.1201 5.39999 17.8801 5.39999H10.9601C10.7201 5.39999 10.5601 5.23999 10.5601 4.99999C10.5601 4.75999 10.7601 4.59999 10.9601 4.59999ZM19.3201 7.43999H9.56009C9.32009 7.43999 9.16009 7.27999 9.16009 7.03999C9.16009 6.79999 9.32009 6.63999 9.56009 6.63999H19.3201C19.5601 6.63999 19.7201 6.79999 19.7201 7.03999C19.7201 7.27999 19.5201 7.43999 19.3201 7.43999Z" fill="#004BA8"/>
<path d="M13 10H3.24C2.56 10 2 10.56 2 11.24V17.92C2 18.6 2.56 19.16 3.24 19.16H4.04V21.2C4.04 21.36 4.12 21.48 4.24 21.56C4.32 21.6 4.36 21.6 4.44 21.6C4.52 21.6 4.6 21.6 4.68 21.52L8.12 19.2H12.96C13.64 19.2 14.2 18.64 14.2 17.96V11.28C14.24 10.56 13.68 10 13 10ZM5.92 15.48C5.68 15.72 5.36 15.84 5.04 15.84C4.96 15.84 4.84 15.84 4.72 15.8C4.28 15.68 3.92 15.36 3.84 14.92C3.72 14.48 3.84 14.04 4.16 13.76C4.48 13.44 4.92 13.32 5.32 13.44C5.76 13.56 6.12 13.88 6.2 14.32C6.36 14.76 6.24 15.16 5.92 15.48ZM9 15.48C8.76 15.72 8.44 15.84 8.12 15.84C8.04 15.84 7.92 15.84 7.84 15.8C7.4 15.72 7.04 15.36 6.92 14.92C6.8 14.48 6.92 14.04 7.24 13.72C7.56 13.4 8 13.28 8.4 13.4C8.84 13.52 9.16 13.84 9.28 14.28C9.4 14.72 9.28 15.16 9 15.48ZM12.04 15.48C11.8 15.72 11.48 15.84 11.16 15.84C11.04 15.84 10.96 15.84 10.84 15.8C10.4 15.68 10.08 15.36 9.96 14.92C9.84 14.48 9.96 14.08 10.28 13.76C10.56 13.44 11 13.32 11.44 13.44C11.88 13.52 12.24 13.88 12.36 14.32C12.48 14.72 12.36 15.16 12.04 15.48Z" fill="#004BA8"/>
</svg>
